<mxfile host="app.diagrams.net" modified="2020-10-20T09:01:47.515Z" agent="5.0 (Windows)" etag="vzQ3GW3wzUfuBGsKDZJ8" version="13.8.0" type="github">
  <diagram id="aPeAdNBn-ag8KA8U4H0V" name="Page-1">
    <mxGraphModel dx="1038" dy="587" grid="1" gridSize="10" guides="1" tooltips="1" connect="1" arrows="1" fold="1" page="1" pageScale="1" pageWidth="827" pageHeight="1169" math="0" shadow="0">
      <root>
        <mxCell id="0" />
        <mxCell id="1" parent="0" />
        <mxCell id="PT3_pEk1Ymc9hAULFSsy-1" value="" style="shape=mxgraph.bpmn.shape;html=1;verticalLabelPosition=bottom;labelBackgroundColor=#ffffff;verticalAlign=top;align=center;perimeter=ellipsePerimeter;outlineConnect=0;outline=end;symbol=terminate;shadow=0;" vertex="1" parent="1">
          <mxGeometry x="880" y="160" width="10" height="10" as="geometry" />
        </mxCell>
        <mxCell id="PT3_pEk1Ymc9hAULFSsy-2" style="edgeStyle=orthogonalEdgeStyle;rounded=0;orthogonalLoop=1;jettySize=auto;html=1;" edge="1" parent="1" source="PT3_pEk1Ymc9hAULFSsy-3" target="PT3_pEk1Ymc9hAULFSsy-21">
          <mxGeometry relative="1" as="geometry" />
        </mxCell>
        <mxCell id="PT3_pEk1Ymc9hAULFSsy-3" value="" style="ellipse;whiteSpace=wrap;html=1;aspect=fixed;shadow=0;fillColor=#000000;" vertex="1" parent="1">
          <mxGeometry x="90" y="44.38" width="11.25" height="11.25" as="geometry" />
        </mxCell>
        <mxCell id="PT3_pEk1Ymc9hAULFSsy-4" style="edgeStyle=orthogonalEdgeStyle;rounded=0;orthogonalLoop=1;jettySize=auto;html=1;" edge="1" parent="1" source="PT3_pEk1Ymc9hAULFSsy-6" target="PT3_pEk1Ymc9hAULFSsy-13">
          <mxGeometry relative="1" as="geometry" />
        </mxCell>
        <mxCell id="PT3_pEk1Ymc9hAULFSsy-5" style="edgeStyle=orthogonalEdgeStyle;rounded=0;orthogonalLoop=1;jettySize=auto;html=1;curved=1;" edge="1" parent="1" source="PT3_pEk1Ymc9hAULFSsy-6" target="PT3_pEk1Ymc9hAULFSsy-8">
          <mxGeometry relative="1" as="geometry" />
        </mxCell>
        <mxCell id="PT3_pEk1Ymc9hAULFSsy-6" value="未开始" style="rounded=0;whiteSpace=wrap;html=1;shadow=0;fillColor=#FFFFFF;" vertex="1" parent="1">
          <mxGeometry x="340" y="145" width="120" height="60" as="geometry" />
        </mxCell>
        <mxCell id="PT3_pEk1Ymc9hAULFSsy-7" style="edgeStyle=orthogonalEdgeStyle;rounded=0;orthogonalLoop=1;jettySize=auto;html=1;curved=1;" edge="1" parent="1" source="PT3_pEk1Ymc9hAULFSsy-8" target="PT3_pEk1Ymc9hAULFSsy-1">
          <mxGeometry relative="1" as="geometry" />
        </mxCell>
        <mxCell id="PT3_pEk1Ymc9hAULFSsy-8" value="已关闭" style="rounded=0;whiteSpace=wrap;html=1;shadow=0;fillColor=#FFFFFF;" vertex="1" parent="1">
          <mxGeometry x="690" y="330" width="120" height="60" as="geometry" />
        </mxCell>
        <mxCell id="PT3_pEk1Ymc9hAULFSsy-9" value="商家管理员创建团购活动" style="text;html=1;strokeColor=none;fillColor=none;align=center;verticalAlign=middle;whiteSpace=wrap;rounded=0;shadow=0;" vertex="1" parent="1">
          <mxGeometry x="160" y="15" width="150" height="20" as="geometry" />
        </mxCell>
        <mxCell id="PT3_pEk1Ymc9hAULFSsy-11" style="edgeStyle=orthogonalEdgeStyle;rounded=0;orthogonalLoop=1;jettySize=auto;html=1;curved=1;exitX=0.75;exitY=1;exitDx=0;exitDy=0;" edge="1" parent="1" source="PT3_pEk1Ymc9hAULFSsy-13" target="PT3_pEk1Ymc9hAULFSsy-8">
          <mxGeometry relative="1" as="geometry">
            <Array as="points">
              <mxPoint x="430" y="430" />
              <mxPoint x="750" y="430" />
            </Array>
          </mxGeometry>
        </mxCell>
        <mxCell id="PT3_pEk1Ymc9hAULFSsy-12" style="edgeStyle=orthogonalEdgeStyle;curved=1;rounded=0;orthogonalLoop=1;jettySize=auto;html=1;" edge="1" parent="1" source="PT3_pEk1Ymc9hAULFSsy-13" target="PT3_pEk1Ymc9hAULFSsy-8">
          <mxGeometry relative="1" as="geometry" />
        </mxCell>
        <mxCell id="PT3_pEk1Ymc9hAULFSsy-13" value="进行中" style="rounded=0;whiteSpace=wrap;html=1;shadow=0;fillColor=#FFFFFF;" vertex="1" parent="1">
          <mxGeometry x="340" y="330" width="120" height="60" as="geometry" />
        </mxCell>
        <mxCell id="PT3_pEk1Ymc9hAULFSsy-14" value="开始时间到" style="text;html=1;strokeColor=none;fillColor=none;align=center;verticalAlign=middle;whiteSpace=wrap;rounded=0;shadow=0;" vertex="1" parent="1">
          <mxGeometry x="310" y="250" width="80" height="20" as="geometry" />
        </mxCell>
        <mxCell id="PT3_pEk1Ymc9hAULFSsy-15" value="结束时间到" style="text;html=1;strokeColor=none;fillColor=none;align=center;verticalAlign=middle;whiteSpace=wrap;rounded=0;shadow=0;" vertex="1" parent="1">
          <mxGeometry x="553" y="330" width="70" height="20" as="geometry" />
        </mxCell>
        <mxCell id="PT3_pEk1Ymc9hAULFSsy-17" value="管理员逻辑删除团购活动" style="text;html=1;strokeColor=none;fillColor=none;align=center;verticalAlign=middle;whiteSpace=wrap;rounded=0;shadow=0;" vertex="1" parent="1">
          <mxGeometry x="538" y="150" width="146" height="20" as="geometry" />
        </mxCell>
        <mxCell id="PT3_pEk1Ymc9hAULFSsy-18" value="团购活动结束" style="text;html=1;strokeColor=none;fillColor=none;align=center;verticalAlign=middle;whiteSpace=wrap;rounded=0;shadow=0;" vertex="1" parent="1">
          <mxGeometry x="900" y="270" width="93" height="20" as="geometry" />
        </mxCell>
        <mxCell id="PT3_pEk1Ymc9hAULFSsy-19" value="管理员逻辑删除团购活动" style="text;html=1;strokeColor=none;fillColor=none;align=center;verticalAlign=middle;whiteSpace=wrap;rounded=0;shadow=0;" vertex="1" parent="1">
          <mxGeometry x="515" y="400" width="146" height="20" as="geometry" />
        </mxCell>
        <mxCell id="PT3_pEk1Ymc9hAULFSsy-20" style="edgeStyle=orthogonalEdgeStyle;rounded=0;orthogonalLoop=1;jettySize=auto;html=1;" edge="1" parent="1" source="PT3_pEk1Ymc9hAULFSsy-21" target="PT3_pEk1Ymc9hAULFSsy-6">
          <mxGeometry relative="1" as="geometry" />
        </mxCell>
        <mxCell id="PT3_pEk1Ymc9hAULFSsy-21" value="已创建" style="rounded=0;whiteSpace=wrap;html=1;" vertex="1" parent="1">
          <mxGeometry x="340" y="20" width="120" height="60" as="geometry" />
        </mxCell>
        <mxCell id="PT3_pEk1Ymc9hAULFSsy-22" value="管理员开放团购活动" style="text;html=1;strokeColor=none;fillColor=none;align=center;verticalAlign=middle;whiteSpace=wrap;rounded=0;" vertex="1" parent="1">
          <mxGeometry x="414" y="100" width="146" height="20" as="geometry" />
        </mxCell>
      </root>
    </mxGraphModel>
  </diagram>
</mxfile>
